<svg id="Layer_2" data-name="Layer 2" xmlns="http://www.w3.org/2000/svg" viewBox="0 0 1883.03 1606.53"><defs><style>.cls-1,.cls-2{fill:none;stroke-miterlimit:10;}.cls-1{stroke:#f7d032;stroke-width:35px;}.cls-2{stroke:#fff;stroke-width:75px;}</style></defs><line class="cls-1" x1="419.62" y1="675.93" x2="419.62" y2="1541.03"/><polyline class="cls-1" points="1141.52 331.03 1141.52 398.06 1665.5 922.05 1665.5 1562.03"/><line class="cls-1" x1="1308.25" y1="564.79" x2="1308.25" y2="1562.03"/><polyline class="cls-1" points="919.52 53.03 919.52 176.03 247.02 848.53 247.02 1541.03"/><polyline class="cls-2" points="1144.27 276.78 1143.27 277.78 1141.77 279.28 1116.77 304.28 558.52 862.53 558.52 1569.03 1744.52 1569.03 1744.52 878.03 919.52 53.03 158.52 814.03 158.52 1569.03"/><polyline class="cls-2" points="558.52 1569.03 162.52 1569.03 137.61 1569.03 133.78 1569.03 131.23 1569.03 131.04 1569.03 131.02 1569.03 121.05 1569.03"/><line class="cls-2" x1="158.52" y1="814.03" x2="26.52" y2="946.03"/><line class="cls-2" x1="1744.52" y1="878.03" x2="1856.52" y2="990.03"/></svg>